name C:\Users\r0593348\3dpredictsim\Results\Batchsim_tmt_linear\Pog_s1_tmt_aCst_d00_k250_ig24_act.mot
datacolumns 128
datarows 4
range 1.22215504 1.25881969
endheader
time	pelvis_tilt	pelvis_list	pelvis_rotation	pelvis_tx	pelvis_ty	pelvis_tz	hip_flexion_l	hip_adduction_l	hip_rotation_l	hip_flexion_r	hip_adduction_r	hip_rotation_r	knee_angle_l	knee_angle_r	ankle_angle_l	ankle_angle_r	subtalar_angle_l	subtalar_angle_r	tmt_angle_l	tmt_angle_r	mtp_angle_l	mtp_angle_r	lumbar_extension	lumbar_bending	lumbar_rotation	arm_flex_l	arm_add_l	arm_rot_l	arm_flex_r	arm_add_r	arm_rot_r	elbow_flex_l	elbow_flex_r	pro_sup_l	pro_sup_r	glut_med1_l/activation	glut_med2_l/activation	glut_med3_l/activation	glut_min1_l/activation	glut_min2_l/activation	glut_min3_l/activation	semimem_l/activation	semiten_l/activation	bifemlh_l/activation	bifemsh_l/activation	sar_l/activation	add_long_l/activation	add_brev_l/activation	add_mag1_l/activation	add_mag2_l/activation	add_mag3_l/activation	tfl_l/activation	pect_l/activation	grac_l/activation	glut_max1_l/activation	glut_max2_l/activation	glut_max3_l/activation	iliacus_l/activation	psoas_l/activation	quad_fem_l/activation	gem_l/activation	peri_l/activation	rect_fem_l/activation	vas_med_l/activation	vas_int_l/activation	vas_lat_l/activation	med_gas_l/activation	lat_gas_l/activation	soleus_l/activation	tib_post_l/activation	flex_dig_l/activation	flex_hal_l/activation	tib_ant_l/activation	per_brev_l/activation	per_long_l/activation	per_tert_l/activation	ext_dig_l/activation	ext_hal_l/activation	ercspn_l/activation	intobl_l/activation	extobl_l/activation	glut_med1_r/activation	glut_med2_r/activation	glut_med3_r/activation	glut_min1_r/activation	glut_min2_r/activation	glut_min3_r/activation	semimem_r/activation	semiten_r/activation	bifemlh_r/activation	bifemsh_r/activation	sar_r/activation	add_long_r/activation	add_brev_r/activation	add_mag1_r/activation	add_mag2_r/activation	add_mag3_r/activation	tfl_r/activation	pect_r/activation	grac_r/activation	glut_max1_r/activation	glut_max2_r/activation	glut_max3_r/activation	iliacus_r/activation	psoas_r/activation	quad_fem_r/activation	gem_r/activation	peri_r/activation	rect_fem_r/activation	vas_med_r/activation	vas_int_r/activation	vas_lat_r/activation	med_gas_r/activation	lat_gas_r/activation	soleus_r/activation	tib_post_r/activation	flex_dig_r/activation	flex_hal_r/activation	tib_ant_r/activation	per_brev_r/activation	per_long_r/activation	per_tert_r/activation	ext_dig_r/activation	ext_hal_r/activation	ercspn_r/activation	intobl_r/activation	extobl_r/activation	
          1.22215504	         -2.92794845	         -0.82387673	          8.24033723	          1.52769380	          0.86547596	         -0.00286705	        -13.84054645	         -1.73231906	          7.77266207	         30.71601088	          0.04970601	         -1.70674308	        -19.01209327	        -13.38322392	        -16.96647207	          9.20056251	         16.87407890	          4.48363358	          3.64624133	          0.11611635	         31.73267087	         -0.06456981	          0.08170550	         -1.47469125	         -2.47515785	          3.86031338	        -13.48798000	         17.70832993	        -11.34666757	        -13.51562364	         11.86182823	         41.80345882	         16.58265082	         86.51662706	         86.51662706	          0.10312819	          0.07506840	          0.08720015	          0.12300701	          0.10297745	          0.08725085	          0.05000178	          0.05000014	          0.05000016	          0.05000016	          0.07244514	          0.16183938	          0.05000177	          0.05000043	          0.05000165	          0.05000071	          0.17897927	          0.06021761	          0.05000171	          0.05000508	          0.05000361	          0.05000191	          0.39315843	          0.60528316	          0.10513779	          0.05000234	          0.09711608	          0.38990004	          0.10285479	          0.11090490	          0.09683592	          0.12634172	          0.19649134	          0.05728580	          0.13428952	          0.16281085	          0.17037197	          0.10477237	          0.47557010	          0.37679050	          0.47651757	          0.44044936	          0.19325124	          0.05000000	          0.05000002	          0.08506053	          0.06018463	          0.06018465	          0.05000135	          0.06018461	          0.06018462	          0.06018462	          0.21886714	          0.11605928	          0.22347617	          0.08848170	          0.05000022	          0.05088965	          0.15210012	          0.15514931	          0.19314756	          0.13562029	          0.06018446	          0.05000187	          0.17576243	          0.07244195	          0.05619488	          0.15083006	          0.05000016	          0.05000006	          0.16311741	          0.05000088	          0.06238884	          0.05000001	          0.05000005	          0.05000006	          0.05000004	          0.06018478	          0.06018484	          0.06018463	          0.06511361	          0.08719747	          0.07041875	          0.42479940	          0.23757600	          0.17926549	          0.12368491	          0.46652312	          0.21985881	          0.05000004	          0.11688535	          0.10620220	
          1.23437659	         -2.93006577	         -0.71149962	          8.42027192	          1.54722714	          0.86401291	         -0.00261620	        -13.90575945	         -1.88408090	          7.38863830	         30.10938027	          0.36977695	         -1.49040249	        -20.29528775	        -13.91789812	        -20.08870880	          8.57149203	         17.19574101	          4.06116060	          3.18335122	          0.05587034	         33.17097383	         -0.05699371	          0.32864410	         -1.38268530	         -2.56788635	          3.48836269	        -13.54675595	         17.99063709	        -12.77805599	        -13.49433776	         11.79904716	         42.78873978	         16.71245671	         86.51662706	         86.51662706	          0.08567655	          0.06236525	          0.07244397	          0.10219143	          0.08555136	          0.07248612	          0.05000325	          0.05473410	          0.06975985	          0.05000040	          0.06018583	          0.24692240	          0.24244105	          0.29997044	          0.07425088	          0.10866426	          0.14869190	          0.05002813	          0.05000680	          0.05000195	          0.05000185	          0.05422566	          0.32662698	          0.50285537	          0.18426258	          0.07244695	          0.08068214	          0.32391999	          0.08544979	          0.12255973	          0.08044987	          0.10496179	          0.16324049	          0.05000002	          0.11156465	          0.13525952	          0.14154112	          0.26605807	          0.46799281	          0.36190790	          0.67663200	          0.58207873	          0.22241096	          0.05000005	          0.08720005	          0.08720015	          0.05000002	          0.05000005	          0.08316001	          0.05000003	          0.05000004	          0.05000007	          0.18182979	          0.09641939	          0.18565886	          0.07350858	          0.06018447	          0.10496169	          0.26062784	          0.38958878	          0.22974854	          0.11267039	          0.05000009	          0.08542369	          0.14601955	          0.06018424	          0.06018511	          0.19094190	          0.05000017	          0.07244380	          0.53884922	          0.23079504	          0.21276847	          0.07244397	          0.19889127	          0.21665662	          0.17800978	          0.05000013	          0.05000019	          0.05000001	          0.06018415	          0.07244249	          0.05850237	          0.57137005	          0.19737271	          0.14892970	          0.43104705	          0.53157590	          0.34696900	          0.05000000	          0.09710565	          0.08823035	
          1.24659814	         -2.92644308	         -0.61585364	          8.56735720	          1.56691581	          0.86205233	         -0.00240267	        -13.78672806	         -2.01763237	          6.97114984	         29.32219299	          0.62079319	         -1.17817693	        -21.94329836	        -14.69558071	        -22.65439707	          8.00887687	         17.40984890	          3.60903552	          2.43383247	         -0.10750906	         33.42168793	         -0.15406960	          0.57648076	         -1.26126606	         -2.64241476	          3.05605124	        -13.61661289	         18.19290900	        -14.18519976	        -13.49639839	         11.84612311	         43.78891942	         16.80752437	         86.51662706	         86.51662706	          0.10496285	          0.06018479	          0.06018482	          0.08489833	          0.07107421	          0.06021997	          0.07420285	          0.06018466	          0.06018489	          0.05000013	          0.05000110	          0.20513747	          0.20512015	          0.24920859	          0.06168662	          0.09027603	          0.12353016	          0.05042460	          0.06018547	          0.06018512	          0.06018501	          0.06018498	          0.27135419	          0.48586506	          0.15308114	          0.06018740	          0.06702889	          0.26910528	          0.07098983	          0.10181990	          0.06683597	          0.08719986	          0.13561645	          0.08964124	          0.09268534	          0.11237051	          0.11758911	          0.22564525	          0.42039728	          0.31265062	          0.82181293	          0.76971114	          0.45356189	          0.06892483	          0.07244379	          0.07244390	          0.28657238	          0.26814413	          0.30596373	          0.06402588	          0.05000072	          0.29290456	          0.16181851	          0.13969896	          0.16387265	          0.08537263	          0.05000047	          0.08719985	          0.21652378	          0.32366146	          0.24992468	          0.17397337	          0.05000013	          0.07244392	          0.15533078	          0.05000006	          0.05000043	          0.20602000	          0.05320890	          0.06018466	          0.44766353	          0.19173924	          0.28664376	          0.06018478	          0.16523430	          0.17999335	          0.14788643	          0.06018452	          0.06018456	          0.06018461	          0.05000011	          0.06018457	          0.06018465	          0.54971811	          0.34242914	          0.18019899	          0.47337381	          0.59056925	          0.49853569	          0.05000001	          0.08067323	          0.07329974	
          1.25881969	         -2.91911704	         -0.53869959	          8.68012920	          1.58648893	          0.85976400	         -0.00218314	        -13.44048825	         -2.15185057	          6.53481275	         28.44120613	          0.82172632	         -0.84927876	        -24.00873913	        -15.44634751	        -24.67031350	          7.52054981	         17.49058374	          3.12460647	          1.76546167	         -0.01381235	         31.92135683	         -0.17052192	          0.80364889	         -1.11420652	         -2.70034282	          2.61096463	        -13.69186473	         18.32631943	        -15.50044718	        -13.51202527	         12.02996434	         44.76094814	         16.81907169	         86.51662706	         86.51662706	          0.08720080	          0.05000020	          0.05000018	          0.17667578	          0.07244486	          0.05002947	          0.10724091	          0.05000011	          0.05000028	          0.05000020	          0.06018523	          0.17042386	          0.17040915	          0.20703682	          0.05124793	          0.07499931	          0.10262644	          0.05847716	          0.05000081	          0.05000079	          0.05000048	          0.05000035	          0.22543486	          0.45668972	          0.12717630	          0.05000240	          0.05568612	          0.29159548	          0.05897685	          0.08719975	          0.08719997	          0.07244364	          0.11266703	          0.07447190	          0.07700085	          0.09335486	          0.09769034	          0.23946051	          0.41170762	          0.29406022	          0.77752695	          0.87310295	          0.37680878	          0.10169323	          0.06018464	          0.06018473	          0.38519646	          0.43789433	          0.49037864	          0.29480478	          0.32405238	          0.37868746	          0.13443509	          0.11605875	          0.13614163	          0.07244390	          0.05000041	          0.07244364	          0.17988299	          0.26889055	          0.22443347	          0.19115958	          0.05000014	          0.06018490	          0.12904534	          0.29025324	          0.22049396	          0.22633450	          0.05000004	          0.05000007	          0.37190858	          0.15929260	          0.25752478	          0.05000014	          0.13727295	          0.21530673	          0.12286083	          0.05000001	          0.05000002	          0.05000000	          0.05000000	          0.05000007	          0.05000007	          0.69546278	          0.28972624	          0.15272832	          0.70981101	          0.62426697	          0.41417340	          0.07541651	          0.09070738	          0.06089574	
